# xmcd
#
# Track frame offsets: 
#        150
#        16325
#        30428
#        49867
#        62497
#        75746
#        96656
#        114856
#        130038
#        143426
#        159360
#        175350
#
# Disc length: 2524 seconds
#
# Revision: 2
# Processed by: cddbd v1.5.2PL0 Copyright (c) Steve Scherf et al.
# Submitted via: ExactAudioCopyFreeDBPlugin 1.0
#
DISCID=8e09da0c
DTITLE=Moe Bandy - Legendary Country
DYEAR=2007
DGENRE=Country
TTITLE0=Long Shadow
TTITLE1=Half A Mind
TTITLE2=Waitin' For My Angel To Show
TTITLE3=Blue Collar Holler
TTITLE4=This Memory Is Mine
TTITLE5=He Ain't No Hank
TTITLE6=Sometimes
TTITLE7=Mr. Jukebox
TTITLE8=Only Time Will Tell
TTITLE9=You Won't Mind The Rain
TTITLE10=A Few Stars Short Of The Moon
TTITLE11=Somethings Really Wrong This Time
EXTD=
EXTT0=
EXTT1=
EXTT2=
EXTT3=
EXTT4=
EXTT5=
EXTT6=
EXTT7=
EXTT8=
EXTT9=
EXTT10=
EXTT11=
PLAYORDER=
